<svg t="1747906653943" class="icon" viewBox="0 0 1024 1024" version="1.1" xmlns="http://www.w3.org/2000/svg" p-id="1937"
     width="20" height="20">
    <path d="M948.92992 780.224A505.152 505.152 0 0 1 517.44192 1024h-6.336V523.648l2.944 1.664 434.88 254.912z"
          fill="#F4D321" p-id="1938"></path>
    <path d="M1024.00192 511.36a515.84 515.84 0 0 1-75.072 269.44L514.04992 525.888l447.36-261.568c41.216 75.648 62.72 160.64 62.592 246.976z"
          fill="#F5A04D" p-id="1939"></path>
    <path d="M512.12992 525.952v3.52l2.88-1.792 447.424-261.632C873.47392 101.952 703.23392 0 518.46592 0h-6.336v525.952z"
          fill="#F9423B" p-id="1940"></path>
    <path d="M75.07392 780.224A505.152 505.152 0 0 0 506.56192 1024h6.336V523.648l-2.944 1.664-434.88 254.912z"
          fill="#02BC7B" p-id="1941"></path>
    <path d="M0.00192 511.36a515.84 515.84 0 0 0 75.072 269.44l434.88-254.848L62.59392 264.32A515.328 515.328 0 0 0 0.00192 511.36z"
          fill="#486AFF" p-id="1942"></path>
    <path d="M512.12992 525.952v3.52l-2.944-1.792-447.36-261.632C150.78592 102.016 320.83392 0.064 505.53792 0h6.336l0.256 525.952z"
          fill="#4D49BE" p-id="1943"></path>
    <path d="M512.00192 512m-192 0a192 192 0 1 0 384 0 192 192 0 1 0-384 0Z" fill="#FFFFFF" p-id="1944"></path>
</svg>